<svg id="Laag_1" xmlns="http://www.w3.org/2000/svg" viewBox="0 0 131.1 81.4"><style>.st0{fill:#fff}.st1{fill:#6e2585}</style><path class="st0" d="M4.8 56.4l-1 .2 2.5 7.2.2.8.2-.9 2.5-7.2-1-.2v-1h3.5v1l-.9.1-3.7 10H5.9l-3.7-10-.9-.1v-1h3.5v1.1zm7.7 2.8v-1h2.6l.1 1.2c.2-.4.5-.7.9-1 .3-.2.7-.4 1.2-.4h.4c.1 0 .2 0 .3.1l-.2 1.4H17c-.4 0-.7.1-1 .3s-.5.4-.6.8v4.7l1.2.2v1h-4v-1l1.2-.2v-5.9l-1.3-.2zm6.9 6.3l1.2-.2v-5.9l-1.2-.2v-1h2.7v7l1.2.2v1h-4l.1-.9zm2.7-9.4h-1.5v-1.5h1.5v1.5zm4.8 11c0 .8-.2 1.5-.7 2-.4.5-1 .7-1.8.7H24c-.1 0-.3-.1-.4-.1l.1-1.2c.1 0 .2 0 .3.1h.3c.3 0 .6-.1.8-.3s.3-.6.3-1.1v-7.7l-1.2-.2v-1h2.7v8.8zm0-11h-1.5v-1.5h1.5v1.5zm4.9 3.1l-.9.2 1.1 4.1.2 1 .2-1 1.6-5.2h1.2l1.6 5.2.2 1.1.2-1.1 1-4.1-1-.2v-1h3.3v1l-.7.1-2.1 7.1h-1.2l-1.6-5-.3-1.4-.3 1.4-1.6 5h-1.2l-2.1-7.1-.7-.1v-1h3.1v1zm10.3 6.3l1.2-.2v-5.9l-1.2-.2v-1h2.7v7l1.2.2v1h-4l.1-.9zm2.7-9.4h-1.5v-1.5h1.5v1.5zm2.7-.5v-1h2.7v10.7l1.2.2v1h-4v-1l1.2-.2v-9.5l-1.1-.2zm5.4 0v-1h2.7v10.7l1.2.2v1h-4v-1l1.2-.2v-9.5l-1.1-.2zm5.5 9.9l1.2-.2v-5.9l-1.2-.2v-1h2.7v7l1.2.2v1h-4l.1-.9zm2.7-9.4h-1.5v-1.5h1.5v1.5zm2.5 6.4c0-1.3.3-2.4.9-3.2.6-.8 1.4-1.2 2.4-1.2.5 0 1 .1 1.4.3s.7.5 1 .9l.1-1h1.1v8.1c0 1.1-.3 1.9-.9 2.5s-1.4.9-2.5.9c-.4 0-.8-.1-1.3-.2s-.9-.3-1.2-.4L65 68c.3.1.6.3 1 .4s.7.1 1.1.1c.7 0 1.2-.2 1.5-.6s.5-.9.5-1.6v-.8c-.3.3-.6.6-1 .8-.4.2-.8.3-1.3.3-1 0-1.8-.4-2.4-1.1s-.9-1.7-.9-2.9v-.1h.1zm1.4.1c0 .8.2 1.5.5 2s.9.8 1.6.8c.5 0 .8-.1 1.1-.3s.6-.5.8-.9v-3.8c-.2-.3-.4-.6-.8-.8-.3-.2-.7-.3-1.1-.3-.7 0-1.2.3-1.6.9-.4.6-.5 1.4-.5 2.4zm11.3 4c-1.1 0-2.1-.4-2.7-1.1-.7-.8-1-1.7-1-3v-.3c0-1.2.3-2.1 1-2.9s1.5-1.2 2.5-1.2c1.1 0 1.9.3 2.5 1s.9 1.6.9 2.7v.9h-5.3c0 .8.2 1.4.6 1.9s.9.8 1.6.8c.5 0 .9-.1 1.3-.2s.7-.3 1-.6l.6 1c-.3.3-.7.5-1.2.7s-1.1.3-1.8.3zm-.2-7.3c-.5 0-.9.2-1.3.6-.4.4-.6 1-.7 1.6h3.8v-.2c0-.6-.2-1.1-.5-1.5-.2-.4-.7-.5-1.3-.5zm4.9-.1v-1h2.6l.1 1.2c.2-.4.5-.7.9-1 .3-.2.7-.4 1.2-.4h.4c.1 0 .2 0 .3.1l-.2 1.4h-.8c-.4 0-.7.1-1 .3s-.5.4-.6.8v4.7l1.2.2v1h-4v-1l1.2-.2v-5.9l-1.3-.2zm12.9 1.6h-1.1l-.2-1c-.2-.2-.4-.3-.7-.4-.3-.1-.6-.2-.9-.2-.5 0-.9.1-1.2.3s-.4.5-.4.8.1.6.3.8c.2.2.7.4 1.4.5 1 .2 1.8.5 2.3.9s.8.9.8 1.5c0 .7-.3 1.3-.9 1.8s-1.4.7-2.3.7c-.6 0-1.2-.1-1.7-.2s-.9-.4-1.3-.6v-1.9h1.1l.3 1.1c.2.2.4.3.7.3.3.1.6.1.9.1.5 0 .9-.1 1.2-.3s.5-.5.5-.8c0-.3-.1-.6-.4-.8s-.7-.4-1.4-.6c-1-.2-1.7-.5-2.3-.9-.5-.4-.8-.9-.8-1.5 0-.7.3-1.2.9-1.7s1.3-.7 2.2-.7c.6 0 1.2.1 1.7.2.5.2.9.4 1.2.7l.1 1.9zm1.8-4.4v-1h4v1l-1.2.2v3.8h5.4v-3.8l-1.2-.2v-1h3.9v1l-1.2.2v8.7l1.2.2v1h-4v-1l1.2-.2v-3.7h-5.4v3.7l1.2.2v1h-4v-1l1.2-.2v-8.7l-1.1-.2zm17.9 8.8c-.3.4-.6.8-1 1s-.9.4-1.4.4c-.9 0-1.6-.3-2.1-.9s-.8-1.5-.8-2.7v-3.7l-.9-.2v-1h2.4V63c0 .9.1 1.5.4 1.8s.7.5 1.2.5 1-.1 1.3-.3c.3-.2.6-.5.8-.9v-4.7l-1.1-.2v-1h2.6v7l.9.2v1h-2.3v-1.2zm3.9.3l1.2-.2v-5.9l-1.2-.2v-1h2.7v7l1.2.2v1h-4v-.9h.1zm2.7-9.4h-1.5v-1.5h1.5v1.5zm8.9 4.7H128l-.2-1c-.2-.2-.4-.3-.7-.4-.3-.1-.6-.2-.9-.2-.5 0-.9.1-1.2.3s-.4.5-.4.8.1.6.3.8c.2.2.7.4 1.4.5 1 .2 1.8.5 2.3.9s.8.9.8 1.5c0 .7-.3 1.3-.9 1.8s-1.4.7-2.3.7c-.6 0-1.2-.1-1.7-.2s-.9-.4-1.3-.6v-1.9h1.1l.3 1.1c.2.2.4.3.7.3.3.1.6.1.9.1.5 0 .9-.1 1.2-.3s.5-.5.5-.8c0-.3-.1-.6-.4-.8s-.7-.4-1.4-.6c-1-.2-1.7-.5-2.3-.9-.5-.4-.8-.9-.8-1.5 0-.7.3-1.2.9-1.7s1.3-.7 2.2-.7c.6 0 1.2.1 1.7.2.5.2.9.4 1.2.7l.1 1.9zm-83 19.6h-.8l-2.2-3.6v3.6h-.8v-5h.8l2.2 3.6v-3.6h.8v5zm2.6 0h-.8v-5h.8v5zm4.7-2.2h-2.2v1.6h2.5v.7h-3.4v-5h3.3v.7h-2.5v1.4h2.2v.6h.1zm5.6-2.7v3.3c0 .6-.2 1-.5 1.3s-.8.4-1.4.4c-.6 0-1-.1-1.4-.4s-.5-.7-.5-1.3v-3.3h.8v3.3c0 .3.1.6.3.8s.5.3.8.3.6-.1.8-.3.3-.4.3-.8v-3.3h.8zm2.9 3.6l1-3.7h.7l1 3.7.8-3.6h.8l-1.2 5h-.8l-1-3.6-1 3.6h-.7l-1.2-5h.8l.8 3.6zm8.7-.9h-2.2v1.6h2.5v.7h-3.4v-5h3.3v.7h-2.5v1.4h2.2l.1.6zm5.4 1.6c-.1.2-.3.4-.7.5-.3.2-.7.2-1.2.2-.6 0-1.1-.2-1.5-.6s-.6-.9-.6-1.5v-1c0-.6.2-1.1.5-1.5.4-.4.8-.6 1.4-.6s1 .1 1.3.4.5.7.5 1.1h-.8c-.1-.3-.2-.5-.3-.7-.2-.2-.4-.2-.8-.2-.3 0-.6.1-.8.4-.2.3-.3.6-.3 1v1c0 .4.1.7.3 1 .2.3.5.4.9.4.3 0 .5 0 .6-.1s.3-.1.4-.2v-1h-1v-.6h1.8v2h.3zm4.6-1.6h-2.1v1.6H81v.7h-3.4v-5h3.3v.7h-2.4v1.4h2.2l-.1.6zm2.6 2.2h-.8v-5h.8v5zm5.7 0h-.8l-2.2-3.6v3.6h-.8v-5h.8l2.2 3.6v-3.6h.8v5z"/><path class="st1" d="M88 12.9C81 8.9 74.2 5 67.3 1c-1-.6-1.9-.6-2.8 0-6.9 4-13.8 8-20.6 11.9-1 .6-1.4 1.4-1.4 2.4v18.2c.8-.5 1.9-1 2.8-1.3.7-.2 1.4-.6 2-1.1s1.2-1.1 1.8-1.7c1.1-1.2 2-2.5 2.9-3.8.7-.9 1.3-1.8 2.2-2.4.7-.4 1.3-1 1.8-1.5l2.8-2.8c.1-.2.3-.4.5-.3.4.2.6-.1.7-.3 1.1-1.7 2.5-3.1 3.4-4.9.2-.5.5-.5.9-.2.2.2.4.4.4.7.2 1 .2 1.9-.4 2.9-1.5 2.4-2.9 4.9-4.8 7-.6.7-.9 1.6-1.3 2.4.4-.2.7-.4 1-.6.7-.4 1.4-.7 2.1-.9.3-.1.6 0 .8.2.7.7.7 1.3.1 2-1 1.2-2.1 2.2-3.5 3-1.1.6-1.8 1.6-2.3 2.7-.8 1.7-1.9 3.1-3.6 4-.5.2-1 .5-1.5.3-.6-.2-1.2-.1-1.7.3-1.9 1.3-3.9 2.6-5.8 4-.4.3-.8.7-1.3 1V45H72c.3 0 .3-.1.2-.4l-.9-1.8c-.2-.5-.6-.9-1.1-1.1-.7-.2-1.1-.6-1.4-1.2-1-1.7-1.3-3.5-1.1-5.5 0-.4.1-.7 0-1.1-.1-1.1-.6-2.1-1.1-3-.7-1.2-.9-2.5-1.1-3.9-.1-.5.2-.9.7-1.2.5-.2.9-.3 1.4.2.6.6 1 1.2 1.4 1.9.1.3.3.5.4.8.1-.9.3-1.8.1-2.8-.2-.9-.3-1.8-.4-2.8-.1-1.9-.2-3.8-.3-5.6-.1-1.1.5-2 1.2-2.8.2-.2.5-.4.8-.3.3 0 .6.2.5.6-.3 1.6.3 3.2.3 4.9 0 .5.1.9.2 1.4 0 .1.1.4.2.4.6 0 .5.5.6.8.5 1.8.8 3.7 1.6 5.5.4.9.6 1.8.8 2.7.3 1.9.3 3.9.8 5.8.3 1.3.5 2.6 1.4 3.6 1.1 1.4 2.2 2.9 2.7 4.5.1.4.4.4.7.4h8.2c.3 0 .6-.3.6-.6v-29c.1-1.1-.4-2-1.4-2.5z"/><path class="st0" d="M71.7 45h.3c.3 0 .3-.1.2-.4l-.9-1.8c-.2-.5-.6-.9-1.1-1.1-.7-.2-1.1-.6-1.4-1.2-1-1.7-1.3-3.5-1.1-5.5 0-.4.1-.7 0-1.1-.1-1.1-.6-2.1-1.1-3-.7-1.2-.9-2.5-1.1-3.9-.1-.5.2-.9.7-1.2.5-.2.9-.3 1.4.2.6.6 1 1.2 1.4 1.9.1.3.3.5.4.8.1-.9.3-1.8.1-2.8-.2-.9-.3-1.8-.4-2.8-.1-1.9-.2-3.8-.3-5.6-.1-1.1.5-2 1.2-2.8.2-.2.5-.4.8-.3.3 0 .6.2.5.6-.3 1.6.3 3.2.3 4.9 0 .5.1.9.2 1.4 0 .1.1.4.2.4.6 0 .5.5.6.8.5 1.8.8 3.7 1.6 5.5.4.9.6 1.8.8 2.7.3 1.9.3 3.9.8 5.8.3 1.3.5 2.6 1.4 3.6 1.1 1.4 2.2 2.9 2.7 4.5.1.4.4.4.7.4M42.5 33.5c.8-.5 1.9-1 2.8-1.3.7-.2 1.4-.6 2-1.1s1.2-1.1 1.8-1.7c1.1-1.2 2-2.5 2.9-3.8.7-.9 1.3-1.8 2.2-2.4.7-.4 1.3-1 1.8-1.5l2.8-2.8c.1-.2.3-.4.5-.3.4.2.6-.1.7-.3 1.1-1.7 2.5-3.1 3.4-4.9.2-.5.5-.5.9-.2.2.2.4.4.4.7.2 1 .2 1.9-.4 2.9-1.5 2.4-2.9 4.9-4.8 7-.6.7-.9 1.6-1.3 2.4.4-.2.7-.4 1-.6.7-.4 1.4-.7 2.1-.9.3-.1.6 0 .8.2.7.7.7 1.3.1 2-1 1.2-2.1 2.2-3.5 3-1.1.6-1.8 1.6-2.3 2.7-.8 1.7-1.9 3.1-3.6 4-.5.2-1 .5-1.5.3-.6-.2-1.2-.1-1.7.3-1.9 1.3-3.9 2.6-5.8 4-.4.3-.8.7-1.3 1"/></svg>